<svg width="96" height="111" viewBox="0 0 96 111" fill="none" xmlns="http://www.w3.org/2000/svg">
<g opacity="0.3">
<mask id="mask0_1_11" style="mask-type:alpha" maskUnits="userSpaceOnUse" x="0" y="0" width="10" height="13">
<path d="M4.67453 12.1902C7.07667 12.1902 9.02399 9.67022 9.02399 6.56172C9.02399 3.45321 7.07667 0.933289 4.67453 0.933289C2.27239 0.933289 0.325073 3.45321 0.325073 6.56172C0.325073 9.67022 2.27239 12.1902 4.67453 12.1902Z" fill="url(#paint0_linear_1_11)"/>
</mask>
<g mask="url(#mask0_1_11)">
<path d="M4.67453 12.1902C7.07667 12.1902 9.02399 9.67022 9.02399 6.56172C9.02399 3.45321 7.07667 0.933289 4.67453 0.933289C2.27239 0.933289 0.325073 3.45321 0.325073 6.56172C0.325073 9.67022 2.27239 12.1902 4.67453 12.1902Z" fill="url(#paint1_linear_1_11)"/>
</g>
<mask id="mask1_1_11" style="mask-type:alpha" maskUnits="userSpaceOnUse" x="25" y="0" width="10" height="13">
<path d="M29.8647 12.1902C32.2668 12.1902 34.2141 9.67022 34.2141 6.56172C34.2141 3.45321 32.2668 0.933289 29.8647 0.933289C27.4625 0.933289 25.5152 3.45321 25.5152 6.56172C25.5152 9.67022 27.4625 12.1902 29.8647 12.1902Z" fill="url(#paint2_linear_1_11)"/>
</mask>
<g mask="url(#mask1_1_11)">
<path d="M29.8651 12.1902C32.2672 12.1902 34.2146 9.67022 34.2146 6.56172C34.2146 3.45321 32.2672 0.933289 29.8651 0.933289C27.4629 0.933289 25.5156 3.45321 25.5156 6.56172C25.5156 9.67022 27.4629 12.1902 29.8651 12.1902Z" fill="url(#paint3_linear_1_11)"/>
</g>
<mask id="mask2_1_11" style="mask-type:alpha" maskUnits="userSpaceOnUse" x="50" y="0" width="10" height="13">
<path d="M55.0548 12.1902C57.457 12.1902 59.4043 9.67022 59.4043 6.56172C59.4043 3.45321 57.457 0.933289 55.0548 0.933289C52.6527 0.933289 50.7054 3.45321 50.7054 6.56172C50.7054 9.67022 52.6527 12.1902 55.0548 12.1902Z" fill="url(#paint4_linear_1_11)"/>
</mask>
<g mask="url(#mask2_1_11)">
<path d="M55.0554 12.1902C57.4575 12.1902 59.4049 9.67022 59.4049 6.56172C59.4049 3.45321 57.4575 0.933289 55.0554 0.933289C52.6533 0.933289 50.7059 3.45321 50.7059 6.56172C50.7059 9.67022 52.6533 12.1902 55.0554 12.1902Z" fill="url(#paint5_linear_1_11)"/>
</g>
<mask id="mask3_1_11" style="mask-type:alpha" maskUnits="userSpaceOnUse" x="75" y="0" width="10" height="13">
<path d="M80.2449 12.1902C82.6471 12.1902 84.5944 9.67022 84.5944 6.56172C84.5944 3.45321 82.6471 0.933289 80.2449 0.933289C77.8428 0.933289 75.8954 3.45321 75.8954 6.56172C75.8954 9.67022 77.8428 12.1902 80.2449 12.1902Z" fill="url(#paint6_linear_1_11)"/>
</mask>
<g mask="url(#mask3_1_11)">
<path d="M80.2455 12.1902C82.6477 12.1902 84.595 9.67022 84.595 6.56172C84.595 3.45321 82.6477 0.933289 80.2455 0.933289C77.8434 0.933289 75.8961 3.45321 75.8961 6.56172C75.8961 9.67022 77.8434 12.1902 80.2455 12.1902Z" fill="url(#paint7_linear_1_11)"/>
</g>
<mask id="mask4_1_11" style="mask-type:alpha" maskUnits="userSpaceOnUse" x="0" y="29" width="10" height="12">
<path d="M4.67453 40.4496C7.07667 40.4496 9.02399 37.9297 9.02399 34.8212C9.02399 31.7127 7.07667 29.1928 4.67453 29.1928C2.27239 29.1928 0.325073 31.7127 0.325073 34.8212C0.325073 37.9297 2.27239 40.4496 4.67453 40.4496Z" fill="url(#paint8_linear_1_11)"/>
</mask>
<g mask="url(#mask4_1_11)">
<path d="M4.67453 40.4497C7.07667 40.4497 9.02399 37.9298 9.02399 34.8213C9.02399 31.7128 7.07667 29.1929 4.67453 29.1929C2.27239 29.1929 0.325073 31.7128 0.325073 34.8213C0.325073 37.9298 2.27239 40.4497 4.67453 40.4497Z" fill="url(#paint9_linear_1_11)"/>
</g>
<mask id="mask5_1_11" style="mask-type:alpha" maskUnits="userSpaceOnUse" x="25" y="29" width="10" height="12">
<path d="M29.8647 40.4497C32.2668 40.4497 34.2141 37.9298 34.2141 34.8213C34.2141 31.7128 32.2668 29.1929 29.8647 29.1929C27.4625 29.1929 25.5152 31.7128 25.5152 34.8213C25.5152 37.9298 27.4625 40.4497 29.8647 40.4497Z" fill="url(#paint10_linear_1_11)"/>
</mask>
<g mask="url(#mask5_1_11)">
<path d="M29.8651 40.4497C32.2672 40.4497 34.2146 37.9297 34.2146 34.8212C34.2146 31.7128 32.2672 29.1928 29.8651 29.1928C27.4629 29.1928 25.5156 31.7128 25.5156 34.8212C25.5156 37.9297 27.4629 40.4497 29.8651 40.4497Z" fill="url(#paint11_linear_1_11)"/>
</g>
<mask id="mask6_1_11" style="mask-type:alpha" maskUnits="userSpaceOnUse" x="50" y="29" width="10" height="12">
<path d="M55.0548 40.4497C57.457 40.4497 59.4043 37.9298 59.4043 34.8213C59.4043 31.7128 57.457 29.1929 55.0548 29.1929C52.6527 29.1929 50.7054 31.7128 50.7054 34.8213C50.7054 37.9298 52.6527 40.4497 55.0548 40.4497Z" fill="url(#paint12_linear_1_11)"/>
</mask>
<g mask="url(#mask6_1_11)">
<path d="M55.0554 40.4497C57.4575 40.4497 59.4049 37.9297 59.4049 34.8212C59.4049 31.7128 57.4575 29.1928 55.0554 29.1928C52.6533 29.1928 50.7059 31.7128 50.7059 34.8212C50.7059 37.9297 52.6533 40.4497 55.0554 40.4497Z" fill="url(#paint13_linear_1_11)"/>
</g>
<mask id="mask7_1_11" style="mask-type:alpha" maskUnits="userSpaceOnUse" x="75" y="29" width="10" height="12">
<path d="M80.2449 40.4497C82.6471 40.4497 84.5944 37.9298 84.5944 34.8213C84.5944 31.7128 82.6471 29.1929 80.2449 29.1929C77.8428 29.1929 75.8954 31.7128 75.8954 34.8213C75.8954 37.9298 77.8428 40.4497 80.2449 40.4497Z" fill="url(#paint14_linear_1_11)"/>
</mask>
<g mask="url(#mask7_1_11)">
<path d="M80.2455 40.4497C82.6477 40.4497 84.595 37.9297 84.595 34.8212C84.595 31.7128 82.6477 29.1928 80.2455 29.1928C77.8434 29.1928 75.8961 31.7128 75.8961 34.8212C75.8961 37.9297 77.8434 40.4497 80.2455 40.4497Z" fill="url(#paint15_linear_1_11)"/>
</g>
<mask id="mask8_1_11" style="mask-type:alpha" maskUnits="userSpaceOnUse" x="0" y="57" width="10" height="12">
<path d="M4.67453 68.6507C7.07667 68.6507 9.02399 66.1308 9.02399 63.0222C9.02399 59.9137 7.07667 57.3938 4.67453 57.3938C2.27239 57.3938 0.325073 59.9137 0.325073 63.0222C0.325073 66.1308 2.27239 68.6507 4.67453 68.6507Z" fill="url(#paint16_linear_1_11)"/>
</mask>
<g mask="url(#mask8_1_11)">
<path d="M4.67453 68.6508C7.07667 68.6508 9.02399 66.1308 9.02399 63.0223C9.02399 59.9138 7.07667 57.3939 4.67453 57.3939C2.27239 57.3939 0.325073 59.9138 0.325073 63.0223C0.325073 66.1308 2.27239 68.6508 4.67453 68.6508Z" fill="url(#paint17_linear_1_11)"/>
</g>
<mask id="mask9_1_11" style="mask-type:alpha" maskUnits="userSpaceOnUse" x="25" y="57" width="10" height="12">
<path d="M29.8647 68.6511C32.2668 68.6511 34.2141 66.1312 34.2141 63.0226C34.2141 59.9141 32.2668 57.3942 29.8647 57.3942C27.4625 57.3942 25.5152 59.9141 25.5152 63.0226C25.5152 66.1312 27.4625 68.6511 29.8647 68.6511Z" fill="url(#paint18_linear_1_11)"/>
</mask>
<g mask="url(#mask9_1_11)">
<path d="M29.8651 68.6506C32.2672 68.6506 34.2146 66.1307 34.2146 63.0221C34.2146 59.9136 32.2672 57.3937 29.8651 57.3937C27.4629 57.3937 25.5156 59.9136 25.5156 63.0221C25.5156 66.1307 27.4629 68.6506 29.8651 68.6506Z" fill="url(#paint19_linear_1_11)"/>
</g>
<mask id="mask10_1_11" style="mask-type:alpha" maskUnits="userSpaceOnUse" x="50" y="57" width="10" height="12">
<path d="M55.0548 68.6511C57.457 68.6511 59.4043 66.1312 59.4043 63.0226C59.4043 59.9141 57.457 57.3942 55.0548 57.3942C52.6527 57.3942 50.7054 59.9141 50.7054 63.0226C50.7054 66.1312 52.6527 68.6511 55.0548 68.6511Z" fill="url(#paint20_linear_1_11)"/>
</mask>
<g mask="url(#mask10_1_11)">
<path d="M55.0554 68.6508C57.4575 68.6508 59.4049 66.1309 59.4049 63.0224C59.4049 59.9139 57.4575 57.3939 55.0554 57.3939C52.6533 57.3939 50.7059 59.9139 50.7059 63.0224C50.7059 66.1309 52.6533 68.6508 55.0554 68.6508Z" fill="url(#paint21_linear_1_11)"/>
</g>
<mask id="mask11_1_11" style="mask-type:alpha" maskUnits="userSpaceOnUse" x="75" y="57" width="10" height="12">
<path d="M80.2449 68.6511C82.6471 68.6511 84.5944 66.1312 84.5944 63.0226C84.5944 59.9141 82.6471 57.3942 80.2449 57.3942C77.8428 57.3942 75.8954 59.9141 75.8954 63.0226C75.8954 66.1312 77.8428 68.6511 80.2449 68.6511Z" fill="url(#paint22_linear_1_11)"/>
</mask>
<g mask="url(#mask11_1_11)">
<path d="M80.2455 68.6508C82.6477 68.6508 84.595 66.1309 84.595 63.0224C84.595 59.9138 82.6477 57.3939 80.2455 57.3939C77.8434 57.3939 75.8961 59.9138 75.8961 63.0224C75.8961 66.1309 77.8434 68.6508 80.2455 68.6508Z" fill="url(#paint23_linear_1_11)"/>
</g>
<mask id="mask12_1_11" style="mask-type:alpha" maskUnits="userSpaceOnUse" x="0" y="85" width="10" height="12">
<path d="M4.67453 96.9107C7.07667 96.9107 9.02399 94.3907 9.02399 91.2822C9.02399 88.1737 7.07667 85.6538 4.67453 85.6538C2.27239 85.6538 0.325073 88.1737 0.325073 91.2822C0.325073 94.3907 2.27239 96.9107 4.67453 96.9107Z" fill="url(#paint24_linear_1_11)"/>
</mask>
<g mask="url(#mask12_1_11)">
<path d="M4.67453 96.9102C7.07667 96.9102 9.02399 94.3902 9.02399 91.2817C9.02399 88.1732 7.07667 85.6533 4.67453 85.6533C2.27239 85.6533 0.325073 88.1732 0.325073 91.2817C0.325073 94.3902 2.27239 96.9102 4.67453 96.9102Z" fill="url(#paint25_linear_1_11)"/>
</g>
<mask id="mask13_1_11" style="mask-type:alpha" maskUnits="userSpaceOnUse" x="25" y="85" width="10" height="12">
<path d="M29.8647 96.9107C32.2668 96.9107 34.2141 94.3907 34.2141 91.2822C34.2141 88.1737 32.2668 85.6538 29.8647 85.6538C27.4625 85.6538 25.5152 88.1737 25.5152 91.2822C25.5152 94.3907 27.4625 96.9107 29.8647 96.9107Z" fill="url(#paint26_linear_1_11)"/>
</mask>
<g mask="url(#mask13_1_11)">
<path d="M29.8651 96.9101C32.2672 96.9101 34.2146 94.3901 34.2146 91.2816C34.2146 88.1731 32.2672 85.6532 29.8651 85.6532C27.4629 85.6532 25.5156 88.1731 25.5156 91.2816C25.5156 94.3901 27.4629 96.9101 29.8651 96.9101Z" fill="url(#paint27_linear_1_11)"/>
</g>
<mask id="mask14_1_11" style="mask-type:alpha" maskUnits="userSpaceOnUse" x="50" y="85" width="10" height="12">
<path d="M55.0548 96.9107C57.457 96.9107 59.4043 94.3907 59.4043 91.2822C59.4043 88.1737 57.457 85.6538 55.0548 85.6538C52.6527 85.6538 50.7054 88.1737 50.7054 91.2822C50.7054 94.3907 52.6527 96.9107 55.0548 96.9107Z" fill="url(#paint28_linear_1_11)"/>
</mask>
<g mask="url(#mask14_1_11)">
<path d="M55.0554 96.9101C57.4575 96.9101 59.4049 94.3901 59.4049 91.2816C59.4049 88.1731 57.4575 85.6531 55.0554 85.6531C52.6533 85.6531 50.7059 88.1731 50.7059 91.2816C50.7059 94.3901 52.6533 96.9101 55.0554 96.9101Z" fill="url(#paint29_linear_1_11)"/>
</g>
<mask id="mask15_1_11" style="mask-type:alpha" maskUnits="userSpaceOnUse" x="75" y="85" width="10" height="12">
<path d="M80.2449 96.9107C82.6471 96.9107 84.5944 94.3907 84.5944 91.2822C84.5944 88.1737 82.6471 85.6538 80.2449 85.6538C77.8428 85.6538 75.8954 88.1737 75.8954 91.2822C75.8954 94.3907 77.8428 96.9107 80.2449 96.9107Z" fill="url(#paint30_linear_1_11)"/>
</mask>
<g mask="url(#mask15_1_11)">
<path d="M80.2455 96.91C82.6477 96.91 84.595 94.39 84.595 91.2815C84.595 88.173 82.6477 85.6531 80.2455 85.6531C77.8434 85.6531 75.8961 88.173 75.8961 91.2815C75.8961 94.39 77.8434 96.91 80.2455 96.91Z" fill="url(#paint31_linear_1_11)"/>
</g>
</g>
<defs>
<linearGradient id="paint0_linear_1_11" x1="42.6846" y1="131.42" x2="-49.0011" y2="-48.4336" gradientUnits="userSpaceOnUse">
<stop stop-color="#FFA434"/>
<stop offset="1" stop-color="#FFA434"/>
</linearGradient>
<linearGradient id="paint1_linear_1_11" x1="42.6846" y1="131.42" x2="-49.0011" y2="-48.4336" gradientUnits="userSpaceOnUse">
<stop stop-color="#FFA434"/>
<stop offset="1" stop-color="#FFA434"/>
</linearGradient>
<linearGradient id="paint2_linear_1_11" x1="67.8748" y1="131.42" x2="-23.8109" y2="-48.4337" gradientUnits="userSpaceOnUse">
<stop stop-color="#FFA434"/>
<stop offset="1" stop-color="#FFA434"/>
</linearGradient>
<linearGradient id="paint3_linear_1_11" x1="67.8752" y1="131.42" x2="-23.8105" y2="-48.4337" gradientUnits="userSpaceOnUse">
<stop stop-color="#FFA434"/>
<stop offset="1" stop-color="#FFA434"/>
</linearGradient>
<linearGradient id="paint4_linear_1_11" x1="93.065" y1="131.42" x2="1.3793" y2="-48.4337" gradientUnits="userSpaceOnUse">
<stop stop-color="#FFA434"/>
<stop offset="1" stop-color="#FFA434"/>
</linearGradient>
<linearGradient id="paint5_linear_1_11" x1="93.0655" y1="131.42" x2="1.37985" y2="-48.4337" gradientUnits="userSpaceOnUse">
<stop stop-color="#FFA434"/>
<stop offset="1" stop-color="#FFA434"/>
</linearGradient>
<linearGradient id="paint6_linear_1_11" x1="118.255" y1="131.42" x2="26.5694" y2="-48.4337" gradientUnits="userSpaceOnUse">
<stop stop-color="#FFA434"/>
<stop offset="1" stop-color="#FFA434"/>
</linearGradient>
<linearGradient id="paint7_linear_1_11" x1="118.256" y1="131.42" x2="26.57" y2="-48.4337" gradientUnits="userSpaceOnUse">
<stop stop-color="#FFA434"/>
<stop offset="1" stop-color="#FFA434"/>
</linearGradient>
<linearGradient id="paint8_linear_1_11" x1="42.6846" y1="159.678" x2="-48.9997" y2="-20.1743" gradientUnits="userSpaceOnUse">
<stop stop-color="#FFA434"/>
<stop offset="1" stop-color="#FFA434"/>
</linearGradient>
<linearGradient id="paint9_linear_1_11" x1="42.6846" y1="159.678" x2="-48.9997" y2="-20.1743" gradientUnits="userSpaceOnUse">
<stop stop-color="#FFA434"/>
<stop offset="1" stop-color="#FFA434"/>
</linearGradient>
<linearGradient id="paint10_linear_1_11" x1="67.8748" y1="159.678" x2="-23.8094" y2="-20.1743" gradientUnits="userSpaceOnUse">
<stop stop-color="#FFA434"/>
<stop offset="1" stop-color="#FFA434"/>
</linearGradient>
<linearGradient id="paint11_linear_1_11" x1="67.8752" y1="159.678" x2="-23.809" y2="-20.1744" gradientUnits="userSpaceOnUse">
<stop stop-color="#FFA434"/>
<stop offset="1" stop-color="#FFA434"/>
</linearGradient>
<linearGradient id="paint12_linear_1_11" x1="93.065" y1="159.678" x2="1.38075" y2="-20.1743" gradientUnits="userSpaceOnUse">
<stop stop-color="#FFA434"/>
<stop offset="1" stop-color="#FFA434"/>
</linearGradient>
<linearGradient id="paint13_linear_1_11" x1="93.0655" y1="159.678" x2="1.38129" y2="-20.1744" gradientUnits="userSpaceOnUse">
<stop stop-color="#FFA434"/>
<stop offset="1" stop-color="#FFA434"/>
</linearGradient>
<linearGradient id="paint14_linear_1_11" x1="118.255" y1="159.678" x2="26.5708" y2="-20.1743" gradientUnits="userSpaceOnUse">
<stop stop-color="#FFA434"/>
<stop offset="1" stop-color="#FFA434"/>
</linearGradient>
<linearGradient id="paint15_linear_1_11" x1="118.256" y1="159.678" x2="26.5714" y2="-20.1744" gradientUnits="userSpaceOnUse">
<stop stop-color="#FFA434"/>
<stop offset="1" stop-color="#FFA434"/>
</linearGradient>
<linearGradient id="paint16_linear_1_11" x1="42.6846" y1="187.88" x2="-49.0011" y2="8.02686" gradientUnits="userSpaceOnUse">
<stop stop-color="#FFA434"/>
<stop offset="1" stop-color="#FFA434"/>
</linearGradient>
<linearGradient id="paint17_linear_1_11" x1="42.6846" y1="187.88" x2="-49.0011" y2="8.02695" gradientUnits="userSpaceOnUse">
<stop stop-color="#FFA434"/>
<stop offset="1" stop-color="#FFA434"/>
</linearGradient>
<linearGradient id="paint18_linear_1_11" x1="67.8748" y1="187.881" x2="-23.8109" y2="8.02716" gradientUnits="userSpaceOnUse">
<stop stop-color="#FFA434"/>
<stop offset="1" stop-color="#FFA434"/>
</linearGradient>
<linearGradient id="paint19_linear_1_11" x1="67.8752" y1="187.88" x2="-23.8105" y2="8.02667" gradientUnits="userSpaceOnUse">
<stop stop-color="#FFA434"/>
<stop offset="1" stop-color="#FFA434"/>
</linearGradient>
<linearGradient id="paint20_linear_1_11" x1="93.065" y1="187.881" x2="1.3793" y2="8.02716" gradientUnits="userSpaceOnUse">
<stop stop-color="#FFA434"/>
<stop offset="1" stop-color="#FFA434"/>
</linearGradient>
<linearGradient id="paint21_linear_1_11" x1="93.0655" y1="187.88" x2="1.37985" y2="8.02691" gradientUnits="userSpaceOnUse">
<stop stop-color="#FFA434"/>
<stop offset="1" stop-color="#FFA434"/>
</linearGradient>
<linearGradient id="paint22_linear_1_11" x1="118.255" y1="187.881" x2="26.5694" y2="8.02716" gradientUnits="userSpaceOnUse">
<stop stop-color="#FFA434"/>
<stop offset="1" stop-color="#FFA434"/>
</linearGradient>
<linearGradient id="paint23_linear_1_11" x1="118.256" y1="187.88" x2="26.57" y2="8.02688" gradientUnits="userSpaceOnUse">
<stop stop-color="#FFA434"/>
<stop offset="1" stop-color="#FFA434"/>
</linearGradient>
<linearGradient id="paint24_linear_1_11" x1="42.6846" y1="216.14" x2="-49.0011" y2="36.2869" gradientUnits="userSpaceOnUse">
<stop stop-color="#FFA434"/>
<stop offset="1" stop-color="#FFA434"/>
</linearGradient>
<linearGradient id="paint25_linear_1_11" x1="42.6846" y1="216.14" x2="-49.0011" y2="36.2863" gradientUnits="userSpaceOnUse">
<stop stop-color="#FFA434"/>
<stop offset="1" stop-color="#FFA434"/>
</linearGradient>
<linearGradient id="paint26_linear_1_11" x1="67.8748" y1="216.14" x2="-23.8109" y2="36.2868" gradientUnits="userSpaceOnUse">
<stop stop-color="#FFA434"/>
<stop offset="1" stop-color="#FFA434"/>
</linearGradient>
<linearGradient id="paint27_linear_1_11" x1="67.8752" y1="216.14" x2="-23.8105" y2="36.2862" gradientUnits="userSpaceOnUse">
<stop stop-color="#FFA434"/>
<stop offset="1" stop-color="#FFA434"/>
</linearGradient>
<linearGradient id="paint28_linear_1_11" x1="93.065" y1="216.14" x2="1.3793" y2="36.2868" gradientUnits="userSpaceOnUse">
<stop stop-color="#FFA434"/>
<stop offset="1" stop-color="#FFA434"/>
</linearGradient>
<linearGradient id="paint29_linear_1_11" x1="93.0655" y1="216.14" x2="1.37985" y2="36.2861" gradientUnits="userSpaceOnUse">
<stop stop-color="#FFA434"/>
<stop offset="1" stop-color="#FFA434"/>
</linearGradient>
<linearGradient id="paint30_linear_1_11" x1="118.255" y1="216.14" x2="26.5694" y2="36.2868" gradientUnits="userSpaceOnUse">
<stop stop-color="#FFA434"/>
<stop offset="1" stop-color="#FFA434"/>
</linearGradient>
<linearGradient id="paint31_linear_1_11" x1="118.256" y1="216.14" x2="26.57" y2="36.2861" gradientUnits="userSpaceOnUse">
<stop stop-color="#FFA434"/>
<stop offset="1" stop-color="#FFA434"/>
</linearGradient>
</defs>
</svg>
